<svg width="80" height="80" viewBox="0 0 80 80" fill="none" xmlns="http://www.w3.org/2000/svg">
<g filter="url(#filter0_d_28_751)">
<rect x="16" y="12" width="48" height="48" rx="8" fill="white" shape-rendering="crispEdges"/>
<path d="M40.02 26.91C36.71 26.91 34.02 29.6 34.02 32.91V35.8C34.02 36.41 33.76 37.34 33.45 37.86L32.3 39.77C31.59 40.95 32.08 42.26 33.38 42.7C37.69 44.14 42.34 44.14 46.65 42.7C47.86 42.3 48.39 40.87 47.73 39.77L46.58 37.86C46.28 37.34 46.02 36.41 46.02 35.8V32.91C46.02 29.61 43.32 26.91 40.02 26.91Z" stroke="#333333" stroke-width="1.5" stroke-miterlimit="10" stroke-linecap="round"/>
<circle cx="47.02" cy="29.9399" r="4" fill="#F23985"/>
<path d="M41.87 27.2C41.56 27.11 41.24 27.04 40.91 27C39.95 26.88 39.03 26.95 38.17 27.2C38.46 26.46 39.18 25.94 40.02 25.94C40.86 25.94 41.58 26.46 41.87 27.2Z" stroke="#333333" stroke-width="1.5" stroke-miterlimit="10" stroke-linecap="round" stroke-linejoin="round"/>
<path d="M43.02 43.06C43.02 44.71 41.67 46.06 40.02 46.06C39.2 46.06 38.44 45.72 37.9 45.18C37.36 44.64 37.02 43.88 37.02 43.06" stroke="#333333" stroke-width="1.5" stroke-miterlimit="10"/>
</g>
<defs>
<filter id="filter0_d_28_751" x="0" y="0" width="80" height="80" filterUnits="userSpaceOnUse" color-interpolation-filters="sRGB">
<feFlood flood-opacity="0" result="BackgroundImageFix"/>
<feColorMatrix in="SourceAlpha" type="matrix" values="0 0 0 0 0 0 0 0 0 0 0 0 0 0 0 0 0 0 127 0" result="hardAlpha"/>
<feOffset dy="4"/>
<feGaussianBlur stdDeviation="8"/>
<feComposite in2="hardAlpha" operator="out"/>
<feColorMatrix type="matrix" values="0 0 0 0 0 0 0 0 0 0.6 0 0 0 0 0.440541 0 0 0 0.08 0"/>
<feBlend mode="multiply" in2="BackgroundImageFix" result="effect1_dropShadow_28_751"/>
<feBlend mode="normal" in="SourceGraphic" in2="effect1_dropShadow_28_751" result="shape"/>
</filter>
</defs>
</svg>
