<svg width="32" height="31" viewBox="0 0 32 31" fill="none" xmlns="http://www.w3.org/2000/svg">
<path d="M30.2287 17.5001C32.204 13.7371 28.1889 11.1275 22.9393 9.84772C23.3343 8.95002 23.4487 7.77491 22.335 6.65291C20.9067 5.21689 21.856 3.125 21.856 3.125C21.856 3.125 18.8581 5.8903 20.751 7.79708C21.4491 8.49988 21.8127 9.11708 21.9864 9.63322C20.5372 9.33451 19.0698 9.13228 17.5938 9.02787C18.0347 7.82956 18.0775 6.32445 16.6884 4.88328C14.7867 2.90792 16.0531 0.03125 16.0531 0.03125C16.0531 0.03125 12.0555 3.83347 14.5795 6.45491C15.5009 7.41087 15.9861 8.25237 16.2212 8.95775C14.6568 8.91083 13.1512 8.97941 11.8137 9.16658C11.973 8.39572 11.84 7.50936 10.9897 6.65342C9.5614 5.21741 10.5112 3.125 10.5112 3.125C10.5112 3.125 7.51283 5.8903 9.4062 7.79708C9.99917 8.39417 10.3467 8.92733 10.5462 9.39191C10.3204 9.44141 10.1013 9.49503 9.89037 9.5533C3.37184 8.94331 0.528685 10.2901 1.82754 12.9322C-0.439143 15.1989 0.412669 17.7858 3.24912 19.7652C4.72897 25.8605 5.11001 30.9688 16.2558 30.9688C26.2011 30.9688 27.5753 26.9005 28.8071 21.6937C32.5031 20.9579 31.7157 19.1862 30.2287 17.5001ZM29.3073 16.8912C28.0692 19.5312 22.6964 21.5184 16.2558 21.5184C9.81561 21.5184 4.44279 19.5312 3.20426 16.8912C3.17797 16.8128 3.1527 16.7313 3.12743 16.6519C3.71731 15.1556 5.6344 13.8572 8.327 12.9879C7.69433 13.5994 7.56284 14.5126 9.22779 14.8328C9.70423 14.9246 11.0124 14.6069 10.4405 12.9838C10.3606 12.7569 10.2302 12.6048 10.0698 12.513C11.9199 12.0897 14.02 11.8458 16.2558 11.8458C16.5064 11.8458 16.7523 11.8545 16.9993 11.8602C15.7092 12.3181 14.6568 13.7288 17.2911 14.1449C17.8728 14.2367 19.4697 13.9191 18.7715 12.2959C18.7105 12.1512 18.6127 12.025 18.4879 11.9298C20.9562 12.1113 23.1925 12.5867 25.0002 13.272C23.4106 13.1833 21.6471 14.163 24.4712 15.5423C25.0771 15.8383 26.9179 16.11 26.6647 14.3177C26.6464 14.1882 26.6007 14.0641 26.5306 13.9536C27.9759 14.7152 28.984 15.6387 29.3836 16.6519L29.3073 16.8912Z" fill="white"/>
</svg>
